<mxfile host="app.diagrams.net" modified="2023-04-17T20:31:29.935Z" agent="Mozilla/5.0 (X11; Linux x86_64; rv:109.0) Gecko/20100101 Firefox/111.0" etag="R8EpAZWYmR-uPY_KTwYu" compressed="false" version="21.1.7" type="device">
  <diagram id="582QG3pIvltcbfHTLR_8" name="Page-1">
    <mxGraphModel dx="1050" dy="555" grid="0" gridSize="10" guides="1" tooltips="1" connect="1" arrows="1" fold="1" page="1" pageScale="1" pageWidth="1600" pageHeight="950" math="0" shadow="0">
      <root>
        <mxCell id="0" />
        <mxCell id="1" parent="0" />
        <mxCell id="_5b_4j9nvjmzGaxmlqEA-103" value="" style="endArrow=classic;html=1;rounded=0;strokeColor=#EA6B66;fillColor=#97D077;exitX=1.035;exitY=0.445;exitDx=0;exitDy=0;exitPerimeter=0;entryX=0.5;entryY=1;entryDx=0;entryDy=0;edgeStyle=orthogonalEdgeStyle;noJump=1;" parent="1" source="_5b_4j9nvjmzGaxmlqEA-79" target="_5b_4j9nvjmzGaxmlqEA-45" edge="1">
          <mxGeometry width="50" height="50" relative="1" as="geometry">
            <mxPoint x="715" y="610" as="sourcePoint" />
            <mxPoint x="765" y="560" as="targetPoint" />
            <Array as="points">
              <mxPoint x="715" y="381" />
              <mxPoint x="715" y="847" />
              <mxPoint x="905" y="847" />
            </Array>
          </mxGeometry>
        </mxCell>
        <mxCell id="_5b_4j9nvjmzGaxmlqEA-104" value="ALUOp" style="edgeLabel;html=1;align=center;verticalAlign=middle;resizable=0;points=[];" parent="_5b_4j9nvjmzGaxmlqEA-103" vertex="1" connectable="0">
          <mxGeometry x="-0.9318" y="-2" relative="1" as="geometry">
            <mxPoint y="-3" as="offset" />
          </mxGeometry>
        </mxCell>
        <mxCell id="_5b_4j9nvjmzGaxmlqEA-107" value="" style="endArrow=classic;html=1;rounded=0;strokeColor=#EA6B66;fillColor=#97D077;exitX=0.909;exitY=0.799;exitDx=0;exitDy=0;exitPerimeter=0;edgeStyle=orthogonalEdgeStyle;targetPortConstraint=none;entryX=0.3;entryY=1;entryDx=10;entryDy=0;entryPerimeter=0;noJump=1;" parent="1" source="_5b_4j9nvjmzGaxmlqEA-79" target="Km6qmCgPLQNsDk_GTwIv-2" edge="1">
          <mxGeometry width="50" height="50" relative="1" as="geometry">
            <mxPoint x="665" y="520" as="sourcePoint" />
            <mxPoint x="811" y="646.7608695652175" as="targetPoint" />
            <Array as="points">
              <mxPoint x="699" y="438" />
              <mxPoint x="699" y="671" />
              <mxPoint x="815" y="671" />
            </Array>
          </mxGeometry>
        </mxCell>
        <mxCell id="_5b_4j9nvjmzGaxmlqEA-108" value="ALUSrc" style="edgeLabel;html=1;align=center;verticalAlign=middle;resizable=0;points=[];" parent="_5b_4j9nvjmzGaxmlqEA-107" vertex="1" connectable="0">
          <mxGeometry x="-0.8584" y="1" relative="1" as="geometry">
            <mxPoint as="offset" />
          </mxGeometry>
        </mxCell>
        <object label="" stage="instruction_decode" id="_5b_4j9nvjmzGaxmlqEA-25">
          <mxCell style="shape=waypoint;sketch=0;fillStyle=solid;size=6;pointerEvents=1;points=[];fillColor=none;resizable=0;rotatable=0;perimeter=centerPerimeter;snapToPoint=1;" parent="1" vertex="1">
            <mxGeometry x="365" y="575" width="40" height="40" as="geometry" />
          </mxCell>
        </object>
        <object label="" stage="instruction_decode" id="_5b_4j9nvjmzGaxmlqEA-28">
          <mxCell style="shape=waypoint;sketch=0;fillStyle=solid;size=6;pointerEvents=1;points=[];fillColor=none;resizable=0;rotatable=0;perimeter=centerPerimeter;snapToPoint=1;" parent="1" vertex="1">
            <mxGeometry x="365" y="552" width="40" height="40" as="geometry" />
          </mxCell>
        </object>
        <object label="" stage="instruction_decode" variable="instruction" id="_5b_4j9nvjmzGaxmlqEA-37">
          <mxCell style="edgeStyle=elbowEdgeStyle;elbow=horizontal;endArrow=none;html=1;rounded=0;exitX=0.511;exitY=0.604;exitDx=0;exitDy=0;exitPerimeter=0;entryDx=0;entryDy=3;entryPerimeter=0;" parent="1" source="_5b_4j9nvjmzGaxmlqEA-25" target="_5b_4j9nvjmzGaxmlqEA-36" edge="1">
            <mxGeometry width="50" height="50" relative="1" as="geometry">
              <mxPoint x="385" y="595" as="sourcePoint" />
              <mxPoint x="455" y="619.75" as="targetPoint" />
              <Array as="points" />
            </mxGeometry>
          </mxCell>
        </object>
        <object label="" stage="instruction_decode" id="_5b_4j9nvjmzGaxmlqEA-123">
          <mxCell style="shape=waypoint;sketch=0;fillStyle=solid;size=6;pointerEvents=1;points=[];fillColor=none;resizable=0;rotatable=0;perimeter=centerPerimeter;snapToPoint=1;strokeColor=#000000;" parent="1" vertex="1">
            <mxGeometry x="345" y="575" width="40" height="40" as="geometry" />
          </mxCell>
        </object>
        <mxCell id="_5b_4j9nvjmzGaxmlqEA-111" value="" style="endArrow=classic;html=1;rounded=0;strokeColor=#EA6B66;fillColor=#97D077;exitX=0.5;exitY=0;exitDx=0;exitDy=0;edgeStyle=orthogonalEdgeStyle;entryX=0.5;entryY=1;entryDx=0;entryDy=0;entryPerimeter=0;" parent="1" source="_5b_4j9nvjmzGaxmlqEA-79" edge="1">
          <mxGeometry width="50" height="50" relative="1" as="geometry">
            <mxPoint x="435" y="370" as="sourcePoint" />
            <mxPoint x="478.75" y="640" as="targetPoint" />
            <Array as="points">
              <mxPoint x="555" y="300" />
              <mxPoint x="405" y="300" />
              <mxPoint x="405" y="666" />
              <mxPoint x="479" y="666" />
            </Array>
          </mxGeometry>
        </mxCell>
        <mxCell id="_5b_4j9nvjmzGaxmlqEA-112" value="RegDst" style="edgeLabel;html=1;align=center;verticalAlign=middle;resizable=0;points=[];" parent="_5b_4j9nvjmzGaxmlqEA-111" vertex="1" connectable="0">
          <mxGeometry x="-0.8563" y="-2" relative="1" as="geometry">
            <mxPoint as="offset" />
          </mxGeometry>
        </mxCell>
        <mxCell id="_5b_4j9nvjmzGaxmlqEA-1" value="PC" style="rounded=0;whiteSpace=wrap;html=1;" parent="1" vertex="1">
          <mxGeometry x="145" y="560" width="60" height="70" as="geometry" />
        </mxCell>
        <object label="Instruction Memory" stage="instruction_fetch" variable="instruction" id="_5b_4j9nvjmzGaxmlqEA-3">
          <mxCell style="rounded=0;whiteSpace=wrap;html=1;" parent="1" vertex="1">
            <mxGeometry x="235" y="540" width="120" height="110" as="geometry" />
          </mxCell>
        </object>
        <object label="" stage="instruction_fetch" variable="pc" id="_5b_4j9nvjmzGaxmlqEA-4">
          <mxCell style="endArrow=classic;html=1;rounded=0;entryX=0;entryY=0.5;entryDx=0;entryDy=0;exitDx=0;exitDy=0;startArrow=none;" parent="1" source="_5b_4j9nvjmzGaxmlqEA-51" target="_5b_4j9nvjmzGaxmlqEA-3" edge="1">
            <mxGeometry width="50" height="50" relative="1" as="geometry">
              <mxPoint x="265" y="610" as="sourcePoint" />
              <mxPoint x="315" y="560" as="targetPoint" />
            </mxGeometry>
          </mxCell>
        </object>
        <object label="" stage="instruction_decode" variable="instruction" id="_5b_4j9nvjmzGaxmlqEA-12">
          <mxCell style="endArrow=none;html=1;rounded=0;exitDx=0;exitDy=0;entryX=-0.025;entryY=0.5;entryDx=0;entryDy=0;entryPerimeter=0;startArrow=none;endFill=0;" parent="1" source="_5b_4j9nvjmzGaxmlqEA-123" target="_5b_4j9nvjmzGaxmlqEA-25" edge="1">
            <mxGeometry width="50" height="50" relative="1" as="geometry">
              <mxPoint x="385" y="595" as="sourcePoint" />
              <mxPoint x="435" y="545" as="targetPoint" />
            </mxGeometry>
          </mxCell>
        </object>
        <object label="" stage="instruction_decode" variable="instruction" id="_5b_4j9nvjmzGaxmlqEA-29">
          <mxCell style="edgeStyle=elbowEdgeStyle;elbow=horizontal;endArrow=none;html=1;rounded=0;exitX=0.575;exitY=0.45;exitDx=0;exitDy=0;exitPerimeter=0;entryDx=0;entryDy=0;entryPerimeter=0;" parent="1" source="_5b_4j9nvjmzGaxmlqEA-25" target="_5b_4j9nvjmzGaxmlqEA-28" edge="1">
            <mxGeometry width="50" height="50" relative="1" as="geometry">
              <mxPoint x="385" y="595" as="sourcePoint" />
              <mxPoint x="516.94" y="525.08" as="targetPoint" />
              <Array as="points">
                <mxPoint x="385" y="590" />
                <mxPoint x="415" y="580" />
              </Array>
            </mxGeometry>
          </mxCell>
        </object>
        <object label="" stage="instruction_decode" variable="rt" id="_5b_4j9nvjmzGaxmlqEA-30">
          <mxCell style="shape=waypoint;sketch=0;fillStyle=solid;size=6;pointerEvents=1;points=[];fillColor=none;resizable=0;rotatable=0;perimeter=centerPerimeter;snapToPoint=1;" parent="1" vertex="1">
            <mxGeometry x="395" y="552" width="40" height="40" as="geometry" />
          </mxCell>
        </object>
        <object label="" stage="instruction_decode" variable="write_register" id="_5b_4j9nvjmzGaxmlqEA-33">
          <mxCell style="edgeStyle=orthogonalEdgeStyle;elbow=horizontal;endArrow=classic;html=1;rounded=0;entryX=0;entryY=0.7;entryDx=0;entryDy=0;entryPerimeter=0;exitX=0.991;exitY=0.417;exitDx=0;exitDy=0;exitPerimeter=0;" parent="1" source="Km6qmCgPLQNsDk_GTwIv-5" target="-Lmf1zb877u7wcXiO0Bk-16" edge="1">
            <mxGeometry width="50" height="50" relative="1" as="geometry">
              <mxPoint x="500" y="607.7173639130435" as="sourcePoint" />
              <mxPoint x="519.8299999999999" y="612.2900000000002" as="targetPoint" />
              <Array as="points">
                <mxPoint x="502" y="608" />
                <mxPoint x="502" y="633" />
              </Array>
            </mxGeometry>
          </mxCell>
        </object>
        <mxCell id="_5b_4j9nvjmzGaxmlqEA-38" value="Sign-Extend" style="ellipse;whiteSpace=wrap;html=1;" parent="1" vertex="1">
          <mxGeometry x="555" y="700" width="100" height="100" as="geometry" />
        </mxCell>
        <object label="" stage="instruction_decode" variable="alu_input2" id="_5b_4j9nvjmzGaxmlqEA-6">
          <mxCell style="edgeStyle=elbowEdgeStyle;elbow=horizontal;endArrow=classic;html=1;rounded=0;exitX=1;exitY=0.5;exitDx=0;exitDy=-5;exitPerimeter=0;entryX=0;entryY=0.8;entryDx=0;entryDy=0;" parent="1" source="Km6qmCgPLQNsDk_GTwIv-2" target="_5b_4j9nvjmzGaxmlqEA-8" edge="1">
            <mxGeometry width="50" height="50" relative="1" as="geometry">
              <mxPoint x="831" y="616.3260608695653" as="sourcePoint" />
              <mxPoint x="755" y="720" as="targetPoint" />
            </mxGeometry>
          </mxCell>
        </object>
        <object label="" stage="instruction_decode" variable="read_data_2" id="_5b_4j9nvjmzGaxmlqEA-7">
          <mxCell style="edgeStyle=elbowEdgeStyle;elbow=horizontal;endArrow=classic;html=1;rounded=0;exitDx=0;exitDy=0;exitPerimeter=0;entryX=0;entryY=0.18220338983050846;entryDx=0;entryDy=3;entryPerimeter=0;startArrow=none;jumpStyle=arc;" parent="1" source="_5b_4j9nvjmzGaxmlqEA-116" target="Km6qmCgPLQNsDk_GTwIv-2" edge="1">
            <mxGeometry width="50" height="50" relative="1" as="geometry">
              <mxPoint x="705" y="770" as="sourcePoint" />
              <mxPoint x="791" y="603.282595652174" as="targetPoint" />
              <Array as="points">
                <mxPoint x="743" y="607" />
              </Array>
            </mxGeometry>
          </mxCell>
        </object>
        <mxCell id="_5b_4j9nvjmzGaxmlqEA-11" value="Shift Left 2" style="ellipse;whiteSpace=wrap;html=1;" parent="1" vertex="1">
          <mxGeometry x="735" y="420" width="70" height="50" as="geometry" />
        </mxCell>
        <object label="" stage="instruction_decode" id="_5b_4j9nvjmzGaxmlqEA-17">
          <mxCell style="shape=waypoint;sketch=0;fillStyle=solid;size=6;pointerEvents=1;points=[];fillColor=none;resizable=0;rotatable=0;perimeter=centerPerimeter;snapToPoint=1;" parent="1" vertex="1">
            <mxGeometry x="701" y="604.5" width="40" height="40" as="geometry" />
          </mxCell>
        </object>
        <object label="" stage="instruction_decode" variable="sign_extend" id="_5b_4j9nvjmzGaxmlqEA-18">
          <mxCell style="edgeStyle=elbowEdgeStyle;elbow=horizontal;endArrow=none;html=1;rounded=0;exitX=1;exitY=0.5;exitDx=0;exitDy=0;entryDx=0;entryDy=0;jumpStyle=arc;" parent="1" source="_5b_4j9nvjmzGaxmlqEA-38" target="_5b_4j9nvjmzGaxmlqEA-17" edge="1">
            <mxGeometry width="50" height="50" relative="1" as="geometry">
              <mxPoint x="655" y="750" as="sourcePoint" />
              <mxPoint x="735" y="455" as="targetPoint" />
              <Array as="points">
                <mxPoint x="721" y="734" />
                <mxPoint x="725" y="650" />
                <mxPoint x="725" y="710" />
                <mxPoint x="725" y="600" />
              </Array>
            </mxGeometry>
          </mxCell>
        </object>
        <object label="" stage="memory" variable="memory_data" id="_5b_4j9nvjmzGaxmlqEA-22">
          <mxCell style="edgeStyle=elbowEdgeStyle;elbow=horizontal;endArrow=classic;html=1;rounded=0;exitX=1;exitY=0.25;exitDx=0;exitDy=0;entryX=0;entryY=0.5760869565217391;entryDx=0;entryDy=3;entryPerimeter=0;jumpStyle=arc;" parent="1" source="_5b_4j9nvjmzGaxmlqEA-20" target="Km6qmCgPLQNsDk_GTwIv-4" edge="1">
            <mxGeometry width="50" height="50" relative="1" as="geometry">
              <mxPoint x="1305" y="540" as="sourcePoint" />
              <mxPoint x="1385.0384615384614" y="544.61544" as="targetPoint" />
            </mxGeometry>
          </mxCell>
        </object>
        <object label="" stage="execute" variable="alu_result" id="_5b_4j9nvjmzGaxmlqEA-23">
          <mxCell style="edgeStyle=elbowEdgeStyle;elbow=horizontal;endArrow=classic;html=1;rounded=0;exitDx=0;exitDy=0;startArrow=none;entryX=0;entryY=0.25;entryDx=0;entryDy=0;" parent="1" source="_5b_4j9nvjmzGaxmlqEA-40" target="_5b_4j9nvjmzGaxmlqEA-20" edge="1">
            <mxGeometry width="50" height="50" relative="1" as="geometry">
              <mxPoint x="1015" y="570" as="sourcePoint" />
              <mxPoint x="1085" y="535" as="targetPoint" />
            </mxGeometry>
          </mxCell>
        </object>
        <object label="" stage="execute" id="_5b_4j9nvjmzGaxmlqEA-40">
          <mxCell style="shape=waypoint;sketch=0;fillStyle=solid;size=6;pointerEvents=1;points=[];fillColor=none;resizable=0;rotatable=0;perimeter=centerPerimeter;snapToPoint=1;" parent="1" vertex="1">
            <mxGeometry x="1025" y="512" width="40" height="40" as="geometry" />
          </mxCell>
        </object>
        <object label="" stage="execute" variable="alu_result" id="_5b_4j9nvjmzGaxmlqEA-41">
          <mxCell style="edgeStyle=elbowEdgeStyle;elbow=horizontal;endArrow=none;html=1;rounded=0;entryDx=0;entryDy=0;exitX=1;exitY=0.5;exitDx=0;exitDy=0;exitPerimeter=0;" parent="1" source="_5b_4j9nvjmzGaxmlqEA-8" target="_5b_4j9nvjmzGaxmlqEA-40" edge="1">
            <mxGeometry width="50" height="50" relative="1" as="geometry">
              <mxPoint x="965" y="610" as="sourcePoint" />
              <mxPoint x="1115" y="532.5" as="targetPoint" />
            </mxGeometry>
          </mxCell>
        </object>
        <mxCell id="_5b_4j9nvjmzGaxmlqEA-45" value="ALU Control" style="ellipse;whiteSpace=wrap;html=1;strokeColor=#EA6B66;points=[[0,0.5,0,0,0],[0.03,0.34,0,0,0],[0.15,0.15,0,0,0],[0.15,0.85,0,0,0],[0.5,0,0,0,0],[0.5,1,0,0,0],[0.85,0.15,0,0,0],[0.85,0.85,0,0,0],[1,0.5,0,0,0]];" parent="1" vertex="1">
          <mxGeometry x="845" y="740" width="120" height="80" as="geometry" />
        </mxCell>
        <object label="" stage="instruction_decode" variable="funct" id="_5b_4j9nvjmzGaxmlqEA-46">
          <mxCell style="endArrow=classic;html=1;rounded=0;entryX=0;entryY=0.5;entryDx=0;entryDy=0;edgeStyle=orthogonalEdgeStyle;exitX=0.567;exitY=0.613;exitDx=0;exitDy=0;exitPerimeter=0;jumpStyle=arc;" parent="1" source="_5b_4j9nvjmzGaxmlqEA-47" target="_5b_4j9nvjmzGaxmlqEA-45" edge="1">
            <mxGeometry width="50" height="50" relative="1" as="geometry">
              <mxPoint x="585" y="960" as="sourcePoint" />
              <mxPoint x="635" y="910" as="targetPoint" />
              <Array as="points">
                <mxPoint x="477" y="826" />
                <mxPoint x="825" y="826" />
                <mxPoint x="825" y="780" />
              </Array>
            </mxGeometry>
          </mxCell>
        </object>
        <mxCell id="_5b_4j9nvjmzGaxmlqEA-102" value="Instruction [5-0] (funct)" style="edgeLabel;html=1;align=center;verticalAlign=middle;resizable=0;points=[];" parent="_5b_4j9nvjmzGaxmlqEA-46" vertex="1" connectable="0">
          <mxGeometry x="-0.5952" y="2" relative="1" as="geometry">
            <mxPoint x="91" y="1" as="offset" />
          </mxGeometry>
        </mxCell>
        <object label="" stage="instruction_decode" variable="imm" id="NFu5_vnd6gg_ZSHdmE7s-3">
          <mxCell style="edgeStyle=orthogonalEdgeStyle;rounded=0;jumpStyle=arc;orthogonalLoop=1;jettySize=auto;html=1;entryX=0;entryY=0.5;entryDx=0;entryDy=0;fontSize=9;endArrow=classic;endFill=1;" parent="1" source="_5b_4j9nvjmzGaxmlqEA-47" target="_5b_4j9nvjmzGaxmlqEA-38" edge="1">
            <mxGeometry relative="1" as="geometry" />
          </mxCell>
        </object>
        <object label="" stage="instruction_decode" id="_5b_4j9nvjmzGaxmlqEA-47">
          <mxCell style="shape=waypoint;sketch=0;fillStyle=solid;size=6;pointerEvents=1;points=[];fillColor=none;resizable=0;rotatable=0;perimeter=centerPerimeter;snapToPoint=1;" parent="1" vertex="1">
            <mxGeometry x="457.5" y="730" width="40" height="40" as="geometry" />
          </mxCell>
        </object>
        <object label="" stage="instruction_decode" variable="imm" id="_5b_4j9nvjmzGaxmlqEA-48">
          <mxCell style="edgeStyle=elbowEdgeStyle;elbow=horizontal;endArrow=none;html=1;rounded=0;entryDx=0;entryDy=0;startArrow=none;" parent="1" source="_5b_4j9nvjmzGaxmlqEA-36" target="_5b_4j9nvjmzGaxmlqEA-47" edge="1">
            <mxGeometry width="50" height="50" relative="1" as="geometry">
              <mxPoint x="385" y="614" as="sourcePoint" />
              <mxPoint x="555" y="750" as="targetPoint" />
              <Array as="points">
                <mxPoint x="385" y="680" />
              </Array>
            </mxGeometry>
          </mxCell>
        </object>
        <mxCell id="_5b_4j9nvjmzGaxmlqEA-145" value="Instruction [15-0] (imm)" style="edgeLabel;html=1;align=center;verticalAlign=middle;resizable=0;points=[];" parent="_5b_4j9nvjmzGaxmlqEA-48" vertex="1" connectable="0">
          <mxGeometry x="0.2075" y="-1" relative="1" as="geometry">
            <mxPoint x="42" y="-11" as="offset" />
          </mxGeometry>
        </mxCell>
        <object label="" variable="alu_control" id="_5b_4j9nvjmzGaxmlqEA-49">
          <mxCell style="endArrow=classic;html=1;rounded=0;exitX=0.5;exitY=0;exitDx=0;exitDy=0;entryX=0.5;entryY=0.88888;entryDx=0;entryDy=0;entryPerimeter=0;strokeColor=#EA6B66;edgeStyle=orthogonalEdgeStyle;noJump=1;" parent="1" source="_5b_4j9nvjmzGaxmlqEA-45" target="_5b_4j9nvjmzGaxmlqEA-8" edge="1">
            <mxGeometry width="50" height="50" relative="1" as="geometry">
              <mxPoint x="935" y="730" as="sourcePoint" />
              <mxPoint x="985" y="680" as="targetPoint" />
            </mxGeometry>
          </mxCell>
        </object>
        <mxCell id="_5b_4j9nvjmzGaxmlqEA-50" value="Add" style="shape=stencil(rZThboMgFIWfhr8Nwmzsz8Wt78Hs7SRDMEDb9e0HXrqstpi1SozJOUc+buAK4bVrRQ+EUS06IPyNMCbUIbyD1aIuKEV9Qr1JUrgeGo/eUVgpPhRg4rw1X3CSO58QUrdgpY8pfyf0NXwTH143RusAkUa7q+RPHmBC6jCXfiMsLX9OasVQ92GFDjzYVDW6hG2fBleLgVflCF3EcRdPl8BXcSyFL0bw8pFt4XVwcqfM672x8GnNQe/ulrOXSmEzTdTci9hmN8El7swRsmc8tRsXgJI6C3h5gjBClLOLWM8m/P7ijyA214xqPuJ/59Eo46b6IfiZlgi3Xa6Zhmk33Ti4eEMOxg8=);whiteSpace=wrap;html=1;" parent="1" vertex="1">
          <mxGeometry x="295" y="205" width="60" height="120" as="geometry" />
        </mxCell>
        <object label="" stage="instruction_fetch" variable="pc" id="_5b_4j9nvjmzGaxmlqEA-51">
          <mxCell style="shape=waypoint;sketch=0;fillStyle=solid;size=6;pointerEvents=1;points=[];fillColor=none;resizable=0;rotatable=0;perimeter=centerPerimeter;snapToPoint=1;" parent="1" vertex="1">
            <mxGeometry x="198" y="575" width="40" height="40" as="geometry" />
          </mxCell>
        </object>
        <object label="" stage="instruction_fetch" variable="pc" id="_5b_4j9nvjmzGaxmlqEA-52">
          <mxCell style="endArrow=none;html=1;rounded=0;entryDx=0;entryDy=0;exitX=1;exitY=0.5;exitDx=0;exitDy=0;" parent="1" source="_5b_4j9nvjmzGaxmlqEA-1" target="_5b_4j9nvjmzGaxmlqEA-51" edge="1">
            <mxGeometry width="50" height="50" relative="1" as="geometry">
              <mxPoint x="205" y="595" as="sourcePoint" />
              <mxPoint x="255" y="595" as="targetPoint" />
            </mxGeometry>
          </mxCell>
        </object>
        <object label="" stage="instruction_fetch" variable="pc" id="_5b_4j9nvjmzGaxmlqEA-61">
          <mxCell style="endArrow=classic;html=1;rounded=0;exitX=0.55;exitY=0.426;exitDx=0;exitDy=0;exitPerimeter=0;entryX=0;entryY=0.2;entryDx=0;entryDy=0;edgeStyle=orthogonalEdgeStyle;" parent="1" source="_5b_4j9nvjmzGaxmlqEA-51" target="_5b_4j9nvjmzGaxmlqEA-50" edge="1">
            <mxGeometry width="50" height="50" relative="1" as="geometry">
              <mxPoint x="185" y="410" as="sourcePoint" />
              <mxPoint x="235" y="360" as="targetPoint" />
              <Array as="points">
                <mxPoint x="217" y="595" />
                <mxPoint x="217" y="229" />
              </Array>
            </mxGeometry>
          </mxCell>
        </object>
        <object label="" stage="instruction_decode" variable="pc_plus_4" id="_5b_4j9nvjmzGaxmlqEA-67">
          <mxCell style="endArrow=classic;html=1;rounded=0;exitDx=0;exitDy=0;entryX=0;entryY=0.2;entryDx=0;entryDy=0;startArrow=none;edgeStyle=orthogonalEdgeStyle;" parent="1" source="_5b_4j9nvjmzGaxmlqEA-75" target="_5b_4j9nvjmzGaxmlqEA-68" edge="1">
            <mxGeometry width="50" height="50" relative="1" as="geometry">
              <mxPoint x="495" y="350" as="sourcePoint" />
              <mxPoint x="755" y="270" as="targetPoint" />
              <Array as="points">
                <mxPoint x="825" y="165" />
                <mxPoint x="905" y="165" />
              </Array>
            </mxGeometry>
          </mxCell>
        </object>
        <mxCell id="_5b_4j9nvjmzGaxmlqEA-68" value="Add" style="shape=stencil(rZThboMgFIWfhr8Nwmzsz8Wt78Hs7SRDMEDb9e0HXrqstpi1SozJOUc+buAK4bVrRQ+EUS06IPyNMCbUIbyD1aIuKEV9Qr1JUrgeGo/eUVgpPhRg4rw1X3CSO58QUrdgpY8pfyf0NXwTH143RusAkUa7q+RPHmBC6jCXfiMsLX9OasVQ92GFDjzYVDW6hG2fBleLgVflCF3EcRdPl8BXcSyFL0bw8pFt4XVwcqfM672x8GnNQe/ulrOXSmEzTdTci9hmN8El7swRsmc8tRsXgJI6C3h5gjBClLOLWM8m/P7ijyA214xqPuJ/59Eo46b6IfiZlgi3Xa6Zhmk33Ti4eEMOxg8=);whiteSpace=wrap;html=1;" parent="1" vertex="1">
          <mxGeometry x="905" y="144" width="60" height="106" as="geometry" />
        </mxCell>
        <object label="" stage="instruction_decode" variable="sign_extend_shift_left_by_2" id="_5b_4j9nvjmzGaxmlqEA-71">
          <mxCell style="edgeStyle=elbowEdgeStyle;elbow=horizontal;endArrow=classic;html=1;rounded=0;exitX=1;exitY=0.5;exitDx=0;exitDy=0;entryX=0;entryY=0.8;entryDx=0;entryDy=0;" parent="1" source="_5b_4j9nvjmzGaxmlqEA-11" target="_5b_4j9nvjmzGaxmlqEA-68" edge="1">
            <mxGeometry width="50" height="50" relative="1" as="geometry">
              <mxPoint x="775" y="350" as="sourcePoint" />
              <mxPoint x="825" y="300" as="targetPoint" />
            </mxGeometry>
          </mxCell>
        </object>
        <mxCell id="_5b_4j9nvjmzGaxmlqEA-73" value="Mux" style="shadow=0;dashed=0;align=center;html=1;strokeWidth=1;shape=mxgraph.electrical.abstract.mux2;spacingBottom=8;" parent="1" vertex="1">
          <mxGeometry x="1144" y="153" width="50" height="70" as="geometry" />
        </mxCell>
        <object label="" stage="execute" variable="relative_pc_branch" id="_5b_4j9nvjmzGaxmlqEA-74">
          <mxCell style="edgeStyle=elbowEdgeStyle;elbow=horizontal;endArrow=classic;html=1;rounded=0;exitX=1;exitY=0.5;exitDx=0;exitDy=0;entryX=0;entryY=0.5785714285714286;entryDx=0;entryDy=3;entryPerimeter=0;" parent="1" source="_5b_4j9nvjmzGaxmlqEA-68" target="_5b_4j9nvjmzGaxmlqEA-73" edge="1">
            <mxGeometry width="50" height="50" relative="1" as="geometry">
              <mxPoint x="775" y="350" as="sourcePoint" />
              <mxPoint x="825" y="300" as="targetPoint" />
              <Array as="points">
                <mxPoint x="1014" y="216" />
                <mxPoint x="1006" y="199" />
              </Array>
            </mxGeometry>
          </mxCell>
        </object>
        <mxCell id="_5b_4j9nvjmzGaxmlqEA-134" value="Relative PC Branch" style="edgeLabel;html=1;align=center;verticalAlign=middle;resizable=0;points=[];" parent="_5b_4j9nvjmzGaxmlqEA-74" vertex="1" connectable="0">
          <mxGeometry x="0.4353" y="-1" relative="1" as="geometry">
            <mxPoint x="-19" as="offset" />
          </mxGeometry>
        </mxCell>
        <object label="" stage="instruction_decode" id="_5b_4j9nvjmzGaxmlqEA-75">
          <mxCell style="shape=waypoint;sketch=0;fillStyle=solid;size=6;pointerEvents=1;points=[];fillColor=none;resizable=0;rotatable=0;perimeter=centerPerimeter;snapToPoint=1;" parent="1" vertex="1">
            <mxGeometry x="805" y="245" width="40" height="40" as="geometry" />
          </mxCell>
        </object>
        <object label="" stage="instruction_decode" variable="pc_plus_4" id="_5b_4j9nvjmzGaxmlqEA-76">
          <mxCell style="endArrow=none;html=1;rounded=0;exitDx=0;exitDy=0;entryDx=0;entryDy=0;startArrow=none;" parent="1" source="_5b_4j9nvjmzGaxmlqEA-136" target="_5b_4j9nvjmzGaxmlqEA-75" edge="1">
            <mxGeometry width="50" height="50" relative="1" as="geometry">
              <mxPoint x="375" y="270" as="sourcePoint" />
              <mxPoint x="935" y="269" as="targetPoint" />
            </mxGeometry>
          </mxCell>
        </object>
        <object label="" stage="execute" variable="pc_plus_4" id="_5b_4j9nvjmzGaxmlqEA-77">
          <mxCell style="edgeStyle=elbowEdgeStyle;elbow=horizontal;endArrow=classic;html=1;rounded=0;exitDx=0;exitDy=0;exitPerimeter=0;entryX=0;entryY=0.19285714285714287;entryDx=0;entryDy=3;entryPerimeter=0;startArrow=none;jumpStyle=arc;exitX=0.589;exitY=0.511;" parent="1" source="_5b_4j9nvjmzGaxmlqEA-75" target="_5b_4j9nvjmzGaxmlqEA-73" edge="1">
            <mxGeometry width="50" height="50" relative="1" as="geometry">
              <mxPoint x="985" y="265" as="sourcePoint" />
              <mxPoint x="825" y="300" as="targetPoint" />
              <Array as="points">
                <mxPoint x="985" y="176" />
                <mxPoint x="1044" y="146" />
                <mxPoint x="985" y="205" />
              </Array>
            </mxGeometry>
          </mxCell>
        </object>
        <mxCell id="_5b_4j9nvjmzGaxmlqEA-133" value="PC + 4" style="edgeLabel;html=1;align=center;verticalAlign=middle;resizable=0;points=[];" parent="_5b_4j9nvjmzGaxmlqEA-77" vertex="1" connectable="0">
          <mxGeometry x="0.8198" y="-2" relative="1" as="geometry">
            <mxPoint x="-14" y="-2" as="offset" />
          </mxGeometry>
        </mxCell>
        <mxCell id="_5b_4j9nvjmzGaxmlqEA-79" value="&lt;div&gt;Control Unit&lt;/div&gt;" style="ellipse;whiteSpace=wrap;html=1;fontStyle=1;points=[[0,0.5,0,0,0],[0.15,0.14,0,0,0],[0.15,0.86,0,0,0],[0.37,0.98,0,0,0],[0.5,0,0,0,0],[0.5,1,0,0,0],[0.85,0.14,0,0,0],[0.85,0.86,0,0,0],[1,0.5,0,0,0]];" parent="1" vertex="1">
          <mxGeometry x="495" y="310" width="120" height="160" as="geometry" />
        </mxCell>
        <object label="" stage="instruction_decode" variable="instruction" id="_5b_4j9nvjmzGaxmlqEA-80">
          <mxCell style="edgeStyle=elbowEdgeStyle;elbow=horizontal;endArrow=classic;html=1;rounded=0;exitX=0.565;exitY=0.445;exitDx=0;exitDy=0;exitPerimeter=0;entryX=0;entryY=0.5;entryDx=0;entryDy=0;strokeColor=#000000;fillColor=#97D077;" parent="1" source="_5b_4j9nvjmzGaxmlqEA-81" target="_5b_4j9nvjmzGaxmlqEA-79" edge="1">
            <mxGeometry width="50" height="50" relative="1" as="geometry">
              <mxPoint x="485" y="600" as="sourcePoint" />
              <mxPoint x="535" y="550" as="targetPoint" />
              <Array as="points">
                <mxPoint x="385" y="430" />
              </Array>
            </mxGeometry>
          </mxCell>
        </object>
        <mxCell id="_5b_4j9nvjmzGaxmlqEA-142" value="Instruction" style="edgeLabel;html=1;align=center;verticalAlign=middle;resizable=0;points=[];" parent="_5b_4j9nvjmzGaxmlqEA-80" vertex="1" connectable="0">
          <mxGeometry x="0.36" y="1" relative="1" as="geometry">
            <mxPoint x="23" y="-9" as="offset" />
          </mxGeometry>
        </mxCell>
        <object label="" stage="instruction_decode" id="_5b_4j9nvjmzGaxmlqEA-81">
          <mxCell style="shape=waypoint;sketch=0;fillStyle=solid;size=6;pointerEvents=1;points=[];fillColor=none;resizable=0;rotatable=0;perimeter=centerPerimeter;snapToPoint=1;" parent="1" vertex="1">
            <mxGeometry x="365" y="522" width="40" height="40" as="geometry" />
          </mxCell>
        </object>
        <object label="" stage="instruction_decode" variable="instruction" id="_5b_4j9nvjmzGaxmlqEA-82">
          <mxCell style="edgeStyle=elbowEdgeStyle;elbow=horizontal;endArrow=none;html=1;rounded=0;exitDx=0;exitDy=0;exitPerimeter=0;entryDx=0;entryDy=0;entryPerimeter=0;startArrow=none;" parent="1" source="_5b_4j9nvjmzGaxmlqEA-28" target="_5b_4j9nvjmzGaxmlqEA-81" edge="1">
            <mxGeometry width="50" height="50" relative="1" as="geometry">
              <mxPoint x="385" y="575" as="sourcePoint" />
              <mxPoint x="519.8299999999999" y="525.6499999999999" as="targetPoint" />
              <Array as="points" />
            </mxGeometry>
          </mxCell>
        </object>
        <object label="" variable="branch" id="_5b_4j9nvjmzGaxmlqEA-83">
          <mxCell style="edgeStyle=elbowEdgeStyle;elbow=horizontal;endArrow=classic;html=1;rounded=0;strokeColor=#EA6B66;fillColor=#97D077;exitX=0.76;exitY=0.063;exitDx=0;exitDy=0;exitPerimeter=0;entryX=0;entryY=0.25;entryDx=0;entryDy=0;entryPerimeter=0;" parent="1" source="_5b_4j9nvjmzGaxmlqEA-79" target="_5b_4j9nvjmzGaxmlqEA-84" edge="1">
            <mxGeometry width="50" height="50" relative="1" as="geometry">
              <mxPoint x="675" y="350" as="sourcePoint" />
              <mxPoint x="905" y="410" as="targetPoint" />
              <Array as="points">
                <mxPoint x="598" y="308" />
                <mxPoint x="626" y="311" />
                <mxPoint x="635" y="305" />
                <mxPoint x="755" y="400" />
                <mxPoint x="745" y="370" />
                <mxPoint x="815" y="360" />
                <mxPoint x="745" y="340" />
                <mxPoint x="925" y="360" />
              </Array>
            </mxGeometry>
          </mxCell>
        </object>
        <mxCell id="_5b_4j9nvjmzGaxmlqEA-91" value="Branch" style="edgeLabel;html=1;align=center;verticalAlign=middle;resizable=0;points=[];" parent="_5b_4j9nvjmzGaxmlqEA-83" vertex="1" connectable="0">
          <mxGeometry x="-0.9174" y="-4" relative="1" as="geometry">
            <mxPoint as="offset" />
          </mxGeometry>
        </mxCell>
        <mxCell id="_5b_4j9nvjmzGaxmlqEA-84" value="" style="verticalLabelPosition=bottom;shadow=0;dashed=0;align=center;html=1;verticalAlign=top;shape=mxgraph.electrical.logic_gates.logic_gate;operation=and;strokeColor=#EA6B66;" parent="1" vertex="1">
          <mxGeometry x="1065" y="270" width="77" height="39" as="geometry" />
        </mxCell>
        <object label="" variable="cpu_branch" id="_5b_4j9nvjmzGaxmlqEA-86">
          <mxCell style="endArrow=classic;html=1;rounded=0;strokeColor=#EA6B66;fillColor=#97D077;exitX=1;exitY=0.5;exitDx=0;exitDy=0;exitPerimeter=0;entryX=0.3;entryY=1;entryDx=10;entryDy=0;entryPerimeter=0;edgeStyle=orthogonalEdgeStyle;noJump=1;" parent="1" source="_5b_4j9nvjmzGaxmlqEA-84" target="_5b_4j9nvjmzGaxmlqEA-73" edge="1">
            <mxGeometry width="50" height="50" relative="1" as="geometry">
              <mxPoint x="1045" y="430" as="sourcePoint" />
              <mxPoint x="1335" y="273.25" as="targetPoint" />
            </mxGeometry>
          </mxCell>
        </object>
        <mxCell id="_5b_4j9nvjmzGaxmlqEA-94" value="" style="endArrow=classic;html=1;rounded=0;strokeColor=#EA6B66;fillColor=#97D077;exitX=0.917;exitY=0.232;exitDx=0;exitDy=0;exitPerimeter=0;edgeStyle=orthogonalEdgeStyle;entryX=0.5;entryY=1;entryDx=0;entryDy=0;noJump=1;" parent="1" source="_5b_4j9nvjmzGaxmlqEA-79" target="_5b_4j9nvjmzGaxmlqEA-20" edge="1">
          <mxGeometry width="50" height="50" relative="1" as="geometry">
            <mxPoint x="915" y="510" as="sourcePoint" />
            <mxPoint x="1195" y="680" as="targetPoint" />
            <Array as="points">
              <mxPoint x="1318" y="347" />
              <mxPoint x="1318" y="677" />
              <mxPoint x="1205" y="677" />
            </Array>
          </mxGeometry>
        </mxCell>
        <mxCell id="_5b_4j9nvjmzGaxmlqEA-97" value="MemRead" style="edgeLabel;html=1;align=center;verticalAlign=middle;resizable=0;points=[];" parent="_5b_4j9nvjmzGaxmlqEA-94" vertex="1" connectable="0">
          <mxGeometry x="-0.9316" y="4" relative="1" as="geometry">
            <mxPoint x="-1" y="5" as="offset" />
          </mxGeometry>
        </mxCell>
        <mxCell id="_5b_4j9nvjmzGaxmlqEA-98" value="" style="endArrow=classic;html=1;rounded=0;strokeColor=#EA6B66;fillColor=#97D077;exitX=1.005;exitY=0.342;exitDx=0;exitDy=0;entryX=0.3113207547169811;entryY=1;entryDx=10;entryDy=0;entryPerimeter=0;edgeStyle=orthogonalEdgeStyle;exitPerimeter=0;noJump=1;" parent="1" source="_5b_4j9nvjmzGaxmlqEA-79" target="Km6qmCgPLQNsDk_GTwIv-4" edge="1">
          <mxGeometry width="50" height="50" relative="1" as="geometry">
            <mxPoint x="595" y="550" as="sourcePoint" />
            <mxPoint x="1427.5" y="480" as="targetPoint" />
          </mxGeometry>
        </mxCell>
        <mxCell id="_5b_4j9nvjmzGaxmlqEA-100" value="&lt;div&gt;MemToReg&lt;/div&gt;" style="edgeLabel;html=1;align=center;verticalAlign=middle;resizable=0;points=[];" parent="_5b_4j9nvjmzGaxmlqEA-98" vertex="1" connectable="0">
          <mxGeometry x="-0.9642" y="-4" relative="1" as="geometry">
            <mxPoint x="18" y="-4" as="offset" />
          </mxGeometry>
        </mxCell>
        <mxCell id="_5b_4j9nvjmzGaxmlqEA-105" value="" style="endArrow=classic;html=1;rounded=0;strokeColor=#EA6B66;fillColor=#97D077;exitX=0.997;exitY=0.566;exitDx=0;exitDy=0;exitPerimeter=0;edgeStyle=orthogonalEdgeStyle;entryX=0.5;entryY=0;entryDx=0;entryDy=0;noJump=1;" parent="1" source="_5b_4j9nvjmzGaxmlqEA-79" target="_5b_4j9nvjmzGaxmlqEA-20" edge="1">
          <mxGeometry width="50" height="50" relative="1" as="geometry">
            <mxPoint x="875" y="610" as="sourcePoint" />
            <mxPoint x="1205" y="470" as="targetPoint" />
            <Array as="points">
              <mxPoint x="618" y="401" />
              <mxPoint x="1205" y="400" />
            </Array>
          </mxGeometry>
        </mxCell>
        <mxCell id="_5b_4j9nvjmzGaxmlqEA-106" value="&lt;div&gt;MemWrite&lt;/div&gt;" style="edgeLabel;html=1;align=center;verticalAlign=middle;resizable=0;points=[];" parent="_5b_4j9nvjmzGaxmlqEA-105" vertex="1" connectable="0">
          <mxGeometry x="-0.6898" y="4" relative="1" as="geometry">
            <mxPoint x="-67" as="offset" />
          </mxGeometry>
        </mxCell>
        <mxCell id="_5b_4j9nvjmzGaxmlqEA-109" value="" style="endArrow=classic;html=1;rounded=0;strokeColor=#EA6B66;fillColor=#97D077;entryX=0.5;entryY=0;entryDx=0;entryDy=0;exitX=0.5;exitY=1;exitDx=0;exitDy=0;edgeStyle=orthogonalEdgeStyle;" parent="1" source="_5b_4j9nvjmzGaxmlqEA-79" edge="1">
          <mxGeometry width="50" height="50" relative="1" as="geometry">
            <mxPoint x="875" y="610" as="sourcePoint" />
            <mxPoint x="605" y="500" as="targetPoint" />
          </mxGeometry>
        </mxCell>
        <mxCell id="_5b_4j9nvjmzGaxmlqEA-110" value="RegWrite" style="edgeLabel;html=1;align=center;verticalAlign=middle;resizable=0;points=[];fontSize=8;labelBackgroundColor=default;" parent="_5b_4j9nvjmzGaxmlqEA-109" vertex="1" connectable="0">
          <mxGeometry x="-0.8831" y="1" relative="1" as="geometry">
            <mxPoint x="18" y="9" as="offset" />
          </mxGeometry>
        </mxCell>
        <object label="" stage="instruction_decode" id="_5b_4j9nvjmzGaxmlqEA-116">
          <mxCell style="shape=waypoint;sketch=0;fillStyle=solid;size=6;pointerEvents=1;points=[];fillColor=none;resizable=0;rotatable=0;perimeter=centerPerimeter;snapToPoint=1;strokeColor=#000000;" parent="1" vertex="1">
            <mxGeometry x="685" y="583" width="40" height="40" as="geometry" />
          </mxCell>
        </object>
        <object label="" stage="instruction_decode" variable="read_data_2" id="_5b_4j9nvjmzGaxmlqEA-117">
          <mxCell style="edgeStyle=elbowEdgeStyle;elbow=horizontal;endArrow=none;html=1;rounded=0;exitX=1;exitY=0.75;exitDx=0;exitDy=0;exitPerimeter=0;entryDx=0;entryDy=3;entryPerimeter=0;" parent="1" source="-Lmf1zb877u7wcXiO0Bk-16" target="_5b_4j9nvjmzGaxmlqEA-116" edge="1">
            <mxGeometry width="50" height="50" relative="1" as="geometry">
              <mxPoint x="690" y="607.9200000000001" as="sourcePoint" />
              <mxPoint x="785" y="629" as="targetPoint" />
              <Array as="points">
                <mxPoint x="695" y="622" />
              </Array>
            </mxGeometry>
          </mxCell>
        </object>
        <object label="" stage="instruction_decode" variable="instruction" id="_5b_4j9nvjmzGaxmlqEA-124">
          <mxCell style="edgeStyle=orthogonalEdgeStyle;endArrow=none;html=1;rounded=0;exitX=1;exitY=0.5;exitDx=0;exitDy=0;entryDx=0;entryDy=0;entryPerimeter=0;" parent="1" source="_5b_4j9nvjmzGaxmlqEA-3" target="_5b_4j9nvjmzGaxmlqEA-123" edge="1">
            <mxGeometry width="50" height="50" relative="1" as="geometry">
              <mxPoint x="355" y="595" as="sourcePoint" />
              <mxPoint x="385" y="595" as="targetPoint" />
            </mxGeometry>
          </mxCell>
        </object>
        <mxCell id="_5b_4j9nvjmzGaxmlqEA-125" value="Shift Left 2" style="ellipse;whiteSpace=wrap;html=1;strokeColor=#000000;" parent="1" vertex="1">
          <mxGeometry x="485" y="140" width="65" height="50" as="geometry" />
        </mxCell>
        <object label="" stage="writeback" variable="new_pc" id="8FLgRsGjoODBAvM2ECYV-2">
          <mxCell style="edgeStyle=orthogonalEdgeStyle;rounded=0;orthogonalLoop=1;jettySize=auto;html=1;entryX=0;entryY=0.5;entryDx=0;entryDy=0;exitX=1;exitY=0.5;exitDx=0;exitDy=-5;exitPerimeter=0;" parent="1" source="Km6qmCgPLQNsDk_GTwIv-3" target="_5b_4j9nvjmzGaxmlqEA-1" edge="1">
            <mxGeometry relative="1" as="geometry">
              <mxPoint x="157" y="427.85185185185185" as="targetPoint" />
              <Array as="points">
                <mxPoint x="1416" y="170" />
                <mxPoint x="1416" y="88" />
                <mxPoint x="83" y="88" />
                <mxPoint x="83" y="595" />
              </Array>
              <mxPoint x="1303" y="168" as="sourcePoint" />
            </mxGeometry>
          </mxCell>
        </object>
        <object label="" stage="instruction_decode" variable="jump_address" id="_5b_4j9nvjmzGaxmlqEA-128">
          <mxCell style="endArrow=classic;html=1;rounded=0;strokeColor=#000000;fillColor=#97D077;edgeStyle=orthogonalEdgeStyle;entryX=0;entryY=0.5653846153846154;entryDx=0;entryDy=3;entryPerimeter=0;exitX=1;exitY=0.5;exitDx=0;exitDy=0;exitPerimeter=0;" parent="1" target="Km6qmCgPLQNsDk_GTwIv-3" edge="1">
            <mxGeometry width="50" height="50" relative="1" as="geometry">
              <mxPoint x="740" y="138" as="sourcePoint" />
              <mxPoint x="1232.51" y="167.47333924565214" as="targetPoint" />
              <Array as="points">
                <mxPoint x="1198" y="138" />
                <mxPoint x="1198" y="158" />
              </Array>
            </mxGeometry>
          </mxCell>
        </object>
        <mxCell id="_5b_4j9nvjmzGaxmlqEA-141" value="Jump Address" style="edgeLabel;html=1;align=center;verticalAlign=middle;resizable=0;points=[];" parent="_5b_4j9nvjmzGaxmlqEA-128" connectable="0" vertex="1">
          <mxGeometry x="0.8479" relative="1" as="geometry">
            <mxPoint x="-161" y="-20" as="offset" />
          </mxGeometry>
        </mxCell>
        <object label="" stage="memory" variable="mem_mux1_to_mem_mux2" id="_5b_4j9nvjmzGaxmlqEA-130">
          <mxCell style="endArrow=classic;html=1;rounded=0;strokeColor=#000000;fillColor=#97D077;exitX=1;exitY=0.5;exitDx=0;exitDy=-5;exitPerimeter=0;entryX=0;entryY=0.18846153846153846;entryDx=0;entryDy=3;entryPerimeter=0;" parent="1" source="_5b_4j9nvjmzGaxmlqEA-73" target="Km6qmCgPLQNsDk_GTwIv-3" edge="1">
            <mxGeometry width="50" height="50" relative="1" as="geometry">
              <mxPoint x="1165" y="330" as="sourcePoint" />
              <mxPoint x="1216" y="205" as="targetPoint" />
            </mxGeometry>
          </mxCell>
        </object>
        <mxCell id="_5b_4j9nvjmzGaxmlqEA-131" value="" style="endArrow=classic;html=1;rounded=0;strokeColor=#EA6B66;fillColor=#97D077;exitX=0.686;exitY=0.01;exitDx=0;exitDy=0;exitPerimeter=0;entryX=0.3076923076923077;entryY=1;entryDx=10;entryDy=0;entryPerimeter=0;edgeStyle=orthogonalEdgeStyle;noJump=1;" parent="1" source="_5b_4j9nvjmzGaxmlqEA-79" target="Km6qmCgPLQNsDk_GTwIv-3" edge="1">
          <mxGeometry width="50" height="50" relative="1" as="geometry">
            <mxPoint x="595" y="295" as="sourcePoint" />
            <mxPoint x="1255.755" y="202.84619565217395" as="targetPoint" />
            <Array as="points">
              <mxPoint x="577" y="260" />
              <mxPoint x="1294" y="260" />
              <mxPoint x="1294" y="120" />
              <mxPoint x="1264" y="120" />
            </Array>
          </mxGeometry>
        </mxCell>
        <mxCell id="_5b_4j9nvjmzGaxmlqEA-132" value="Jump" style="edgeLabel;html=1;align=center;verticalAlign=middle;resizable=0;points=[];" parent="_5b_4j9nvjmzGaxmlqEA-131" vertex="1" connectable="0">
          <mxGeometry x="-0.9534" y="-2" relative="1" as="geometry">
            <mxPoint as="offset" />
          </mxGeometry>
        </mxCell>
        <object label="" stage="instruction_decode" id="_5b_4j9nvjmzGaxmlqEA-136">
          <mxCell style="shape=waypoint;sketch=0;fillStyle=solid;size=6;pointerEvents=1;points=[];fillColor=none;resizable=0;rotatable=0;perimeter=centerPerimeter;snapToPoint=1;strokeColor=#000000;" parent="1" vertex="1">
            <mxGeometry x="595" y="245" width="40" height="40" as="geometry" />
          </mxCell>
        </object>
        <object label="" stage="instruction_decode" variable="pc_plus_4" id="_5b_4j9nvjmzGaxmlqEA-137">
          <mxCell style="endArrow=none;html=1;rounded=0;exitX=1;exitY=0.5;exitDx=0;exitDy=0;entryDx=0;entryDy=0;" parent="1" source="_5b_4j9nvjmzGaxmlqEA-50" target="_5b_4j9nvjmzGaxmlqEA-136" edge="1">
            <mxGeometry width="50" height="50" relative="1" as="geometry">
              <mxPoint x="355" y="270" as="sourcePoint" />
              <mxPoint x="865" y="270" as="targetPoint" />
            </mxGeometry>
          </mxCell>
        </object>
        <object label="" stage="instruction_decode" variable="pc_plus_4_upper" id="_5b_4j9nvjmzGaxmlqEA-138">
          <mxCell style="endArrow=classic;html=1;rounded=0;strokeColor=#000000;fillColor=#97D077;entryX=0.175;entryY=0.75;entryDx=0;entryDy=0;entryPerimeter=0;edgeStyle=orthogonalEdgeStyle;exitX=0.503;exitY=0.443;exitDx=0;exitDy=0;exitPerimeter=0;" parent="1" source="_5b_4j9nvjmzGaxmlqEA-136" edge="1">
            <mxGeometry width="50" height="50" relative="1" as="geometry">
              <mxPoint x="648" y="245" as="sourcePoint" />
              <mxPoint x="690.5" y="158" as="targetPoint" />
              <Array as="points">
                <mxPoint x="615" y="158" />
              </Array>
            </mxGeometry>
          </mxCell>
        </object>
        <mxCell id="_5b_4j9nvjmzGaxmlqEA-139" value="PC + 4 [63-28]" style="edgeLabel;html=1;align=center;verticalAlign=middle;resizable=0;points=[];" parent="_5b_4j9nvjmzGaxmlqEA-138" vertex="1" connectable="0">
          <mxGeometry x="0.7252" y="3" relative="1" as="geometry">
            <mxPoint x="-46" y="49" as="offset" />
          </mxGeometry>
        </mxCell>
        <mxCell id="-Lmf1zb877u7wcXiO0Bk-15" value="" style="group" parent="1" vertex="1" connectable="0">
          <mxGeometry x="520" y="500" width="170" height="190" as="geometry" />
        </mxCell>
        <mxCell id="-Lmf1zb877u7wcXiO0Bk-16" value="Registers" style="rounded=0;whiteSpace=wrap;html=1;fontStyle=1;points=[[0,0,0,0,0],[0,0.22,0,0,0],[0,0.38,0,0,0],[0,0.7,0,0,0],[0,0.86,0,0,0],[0,1,0,0,0],[0.13,0,0,0,0],[0.25,0,0,0,0],[0.25,1,0,0,0],[0.5,0,0,0,0],[0.5,1,0,0,0],[0.75,0,0,0,0],[0.75,1,0,0,0],[1,0,0,0,0],[1,0.25,0,0,0],[1,0.5,0,0,0],[1,0.75,0,0,0],[1,1,0,0,0]];" parent="-Lmf1zb877u7wcXiO0Bk-15" vertex="1">
          <mxGeometry width="170" height="190" as="geometry" />
        </mxCell>
        <mxCell id="-Lmf1zb877u7wcXiO0Bk-17" value="Read Register 1" style="text;html=1;strokeColor=none;fillColor=none;align=left;verticalAlign=middle;whiteSpace=wrap;rounded=0;fontSize=9;" parent="-Lmf1zb877u7wcXiO0Bk-15" vertex="1">
          <mxGeometry x="10" y="27" width="70" height="30" as="geometry" />
        </mxCell>
        <mxCell id="-Lmf1zb877u7wcXiO0Bk-18" value="Read Register 2" style="text;html=1;strokeColor=none;fillColor=none;align=left;verticalAlign=middle;whiteSpace=wrap;rounded=0;fontSize=9;" parent="-Lmf1zb877u7wcXiO0Bk-15" vertex="1">
          <mxGeometry x="10" y="58" width="70" height="30" as="geometry" />
        </mxCell>
        <mxCell id="-Lmf1zb877u7wcXiO0Bk-19" value="Write Register" style="text;html=1;strokeColor=none;fillColor=none;align=left;verticalAlign=middle;whiteSpace=wrap;rounded=0;fontSize=9;" parent="-Lmf1zb877u7wcXiO0Bk-15" vertex="1">
          <mxGeometry x="10" y="118" width="70" height="30" as="geometry" />
        </mxCell>
        <mxCell id="-Lmf1zb877u7wcXiO0Bk-20" value="Write Data" style="text;html=1;strokeColor=none;fillColor=none;align=left;verticalAlign=middle;whiteSpace=wrap;rounded=0;fontSize=9;" parent="-Lmf1zb877u7wcXiO0Bk-15" vertex="1">
          <mxGeometry x="10" y="150" width="70" height="30" as="geometry" />
        </mxCell>
        <mxCell id="-Lmf1zb877u7wcXiO0Bk-21" value="Read Data 1" style="text;html=1;strokeColor=none;fillColor=none;align=right;verticalAlign=middle;whiteSpace=wrap;rounded=0;fontSize=9;" parent="-Lmf1zb877u7wcXiO0Bk-15" vertex="1">
          <mxGeometry x="95" y="34" width="70" height="30" as="geometry" />
        </mxCell>
        <mxCell id="-Lmf1zb877u7wcXiO0Bk-22" value="Read Data 2" style="text;html=1;strokeColor=none;fillColor=none;align=right;verticalAlign=middle;whiteSpace=wrap;rounded=0;fontSize=9;" parent="-Lmf1zb877u7wcXiO0Bk-15" vertex="1">
          <mxGeometry x="95" y="127" width="70" height="30" as="geometry" />
        </mxCell>
        <mxCell id="-Lmf1zb877u7wcXiO0Bk-31" value="" style="group" parent="1" connectable="0" vertex="1">
          <mxGeometry x="1115" y="490" width="180" height="170" as="geometry" />
        </mxCell>
        <mxCell id="_5b_4j9nvjmzGaxmlqEA-20" value="Data Memory" style="whiteSpace=wrap;html=1;fontStyle=1" parent="-Lmf1zb877u7wcXiO0Bk-31" vertex="1">
          <mxGeometry width="180" height="170" as="geometry" />
        </mxCell>
        <mxCell id="-Lmf1zb877u7wcXiO0Bk-28" value="&lt;div&gt;Write Data&lt;br&gt;&lt;/div&gt;" style="text;html=1;strokeColor=none;fillColor=none;align=left;verticalAlign=middle;whiteSpace=wrap;rounded=0;fontSize=9;" parent="-Lmf1zb877u7wcXiO0Bk-31" vertex="1">
          <mxGeometry x="10" y="112.5" width="60" height="30" as="geometry" />
        </mxCell>
        <mxCell id="-Lmf1zb877u7wcXiO0Bk-29" value="Address" style="text;html=1;strokeColor=none;fillColor=none;align=left;verticalAlign=middle;whiteSpace=wrap;rounded=0;fontSize=9;" parent="-Lmf1zb877u7wcXiO0Bk-31" vertex="1">
          <mxGeometry x="10" y="25" width="60" height="30" as="geometry" />
        </mxCell>
        <mxCell id="-Lmf1zb877u7wcXiO0Bk-30" value="Read Data" style="text;html=1;strokeColor=none;fillColor=none;align=right;verticalAlign=middle;whiteSpace=wrap;rounded=0;fontSize=9;" parent="-Lmf1zb877u7wcXiO0Bk-31" vertex="1">
          <mxGeometry x="114" y="27" width="60" height="30" as="geometry" />
        </mxCell>
        <object label="" stage="instruction_decode" variable="read_data_2" id="mJyIEkHkixJ9JkuoTiU8-119">
          <mxCell style="endArrow=classic;html=1;rounded=0;strokeColor=#000000;fillColor=#97D077;edgeStyle=orthogonalEdgeStyle;exitX=0.556;exitY=0.535;exitDx=0;exitDy=0;exitPerimeter=0;entryDx=0;entryDy=0;entryX=0;entryY=0.75;endFill=1;jumpStyle=arc;" parent="1" source="_5b_4j9nvjmzGaxmlqEA-116" target="_5b_4j9nvjmzGaxmlqEA-20" edge="1">
            <mxGeometry width="50" height="50" relative="1" as="geometry">
              <mxPoint x="704.9999999999998" y="630" as="sourcePoint" />
              <mxPoint x="705" y="700" as="targetPoint" />
              <Array as="points">
                <mxPoint x="705" y="694" />
                <mxPoint x="984" y="694" />
                <mxPoint x="984" y="618" />
              </Array>
            </mxGeometry>
          </mxCell>
        </object>
        <object label="" stage="writeback" variable="data_result" id="mJyIEkHkixJ9JkuoTiU8-172">
          <mxCell style="endArrow=classic;html=1;rounded=0;edgeStyle=orthogonalEdgeStyle;exitX=1;exitY=0.5;exitDx=0;exitDy=-5;exitPerimeter=0;entryX=0;entryY=0.86;entryDx=0;entryDy=0;entryPerimeter=0;endFill=1;jumpStyle=arc;" parent="1" source="Km6qmCgPLQNsDk_GTwIv-4" target="-Lmf1zb877u7wcXiO0Bk-16" edge="1">
            <mxGeometry width="50" height="50" relative="1" as="geometry">
              <mxPoint x="1474" y="553" as="sourcePoint" />
              <mxPoint x="1523" y="890" as="targetPoint" />
              <Array as="points">
                <mxPoint x="1464" y="545" />
                <mxPoint x="1464" y="877" />
                <mxPoint x="498" y="877" />
                <mxPoint x="498" y="663" />
              </Array>
            </mxGeometry>
          </mxCell>
        </object>
        <object label="" stage="instruction_decode" variable="rs" id="-I45d_4FKIcXNRPlzvKB-46">
          <mxCell style="edgeStyle=elbowEdgeStyle;elbow=horizontal;endArrow=classic;html=1;rounded=0;exitDx=0;exitDy=0;exitPerimeter=0;entryDx=0;entryDy=0;entryPerimeter=0;startArrow=none;endFill=1;entryX=0;entryY=0.22;" parent="1" source="_5b_4j9nvjmzGaxmlqEA-81" target="-Lmf1zb877u7wcXiO0Bk-16" edge="1">
            <mxGeometry width="50" height="50" relative="1" as="geometry">
              <mxPoint x="384.9999999999999" y="530" as="sourcePoint" />
              <mxPoint x="430.9999999999999" y="542" as="targetPoint" />
              <Array as="points" />
            </mxGeometry>
          </mxCell>
        </object>
        <mxCell id="-I45d_4FKIcXNRPlzvKB-47" value="Instruction [25-21] (rs or base)" style="edgeLabel;html=1;align=center;verticalAlign=middle;resizable=0;points=[];fontSize=8;" parent="-I45d_4FKIcXNRPlzvKB-46" vertex="1" connectable="0">
          <mxGeometry x="-0.4518" y="-1" relative="1" as="geometry">
            <mxPoint x="27" y="-11" as="offset" />
          </mxGeometry>
        </mxCell>
        <object label="" stage="instruction_decode" variable="rd" id="_5b_4j9nvjmzGaxmlqEA-35">
          <mxCell style="edgeStyle=elbowEdgeStyle;elbow=horizontal;endArrow=classic;html=1;rounded=0;exitDx=0;exitDy=0;exitPerimeter=0;startArrow=none;entryX=0;entryY=0.5466101694915254;entryDx=0;entryDy=3;entryPerimeter=0;" parent="1" source="_5b_4j9nvjmzGaxmlqEA-36" target="Km6qmCgPLQNsDk_GTwIv-5" edge="1">
            <mxGeometry width="50" height="50" relative="1" as="geometry">
              <mxPoint x="385" y="690" as="sourcePoint" />
              <mxPoint x="458" y="613.804255" as="targetPoint" />
              <Array as="points">
                <mxPoint x="395" y="613" />
              </Array>
            </mxGeometry>
          </mxCell>
        </object>
        <mxCell id="_5b_4j9nvjmzGaxmlqEA-146" value="&lt;font style=&quot;font-size: 6px;&quot;&gt;Instruction [15-11] (rd)&lt;/font&gt;" style="edgeLabel;html=1;align=center;verticalAlign=middle;resizable=0;points=[];labelBackgroundColor=default;fontSize=6;" parent="_5b_4j9nvjmzGaxmlqEA-35" vertex="1" connectable="0">
          <mxGeometry x="0.0655" relative="1" as="geometry">
            <mxPoint x="-5" y="-9" as="offset" />
          </mxGeometry>
        </mxCell>
        <object label="" stage="instruction_decode" variable="rt" id="_5b_4j9nvjmzGaxmlqEA-27">
          <mxCell style="edgeStyle=elbowEdgeStyle;elbow=horizontal;endArrow=classic;html=1;rounded=0;exitDx=0;exitDy=0;exitPerimeter=0;entryX=0;entryY=0.38;entryDx=0;entryDy=0;entryPerimeter=0;startArrow=none;" parent="1" source="_5b_4j9nvjmzGaxmlqEA-30" target="-Lmf1zb877u7wcXiO0Bk-16" edge="1">
            <mxGeometry width="50" height="50" relative="1" as="geometry">
              <mxPoint x="365" y="820" as="sourcePoint" />
              <mxPoint x="520.1700000000003" y="575.24" as="targetPoint" />
              <Array as="points">
                <mxPoint x="455" y="570" />
                <mxPoint x="435" y="577" />
              </Array>
            </mxGeometry>
          </mxCell>
        </object>
        <object label="" stage="instruction_decode" variable="rt" id="_5b_4j9nvjmzGaxmlqEA-31">
          <mxCell style="edgeStyle=elbowEdgeStyle;elbow=horizontal;endArrow=none;html=1;rounded=0;exitX=0.675;exitY=0.525;exitDx=0;exitDy=0;exitPerimeter=0;entryDx=0;entryDy=0;entryPerimeter=0;" parent="1" source="_5b_4j9nvjmzGaxmlqEA-28" target="_5b_4j9nvjmzGaxmlqEA-30" edge="1">
            <mxGeometry width="50" height="50" relative="1" as="geometry">
              <mxPoint x="385" y="575" as="sourcePoint" />
              <mxPoint x="520.17" y="575.24" as="targetPoint" />
              <Array as="points" />
            </mxGeometry>
          </mxCell>
        </object>
        <mxCell id="_5b_4j9nvjmzGaxmlqEA-144" value="Instruction [20-16] (rt)" style="edgeLabel;html=1;align=center;verticalAlign=middle;resizable=0;points=[];fontSize=8;" parent="_5b_4j9nvjmzGaxmlqEA-31" vertex="1" connectable="0">
          <mxGeometry x="0.3846" y="-1" relative="1" as="geometry">
            <mxPoint x="19" y="-11" as="offset" />
          </mxGeometry>
        </mxCell>
        <object label="" stage="instruction_decode" variable="rt" id="-I45d_4FKIcXNRPlzvKB-50">
          <mxCell style="edgeStyle=orthogonalEdgeStyle;elbow=horizontal;endArrow=classic;html=1;rounded=0;entryX=0;entryY=0.18220338983050846;entryDx=0;entryDy=3;entryPerimeter=0;" parent="1" source="_5b_4j9nvjmzGaxmlqEA-30" target="Km6qmCgPLQNsDk_GTwIv-5" edge="1">
            <mxGeometry width="50" height="50" relative="1" as="geometry">
              <mxPoint x="415" y="575" as="sourcePoint" />
              <mxPoint x="458" y="601.6303541304349" as="targetPoint" />
              <Array as="points">
                <mxPoint x="415" y="597" />
              </Array>
            </mxGeometry>
          </mxCell>
        </object>
        <object label="" stage="instruction_decode" variable="sign_extend" id="-I45d_4FKIcXNRPlzvKB-52">
          <mxCell style="edgeStyle=elbowEdgeStyle;elbow=horizontal;endArrow=classic;html=1;rounded=0;entryX=0;entryY=0.5466101694915254;entryDx=0;entryDy=3;entryPerimeter=0;endFill=1;" parent="1" source="_5b_4j9nvjmzGaxmlqEA-17" target="Km6qmCgPLQNsDk_GTwIv-2" edge="1">
            <mxGeometry width="50" height="50" relative="1" as="geometry">
              <mxPoint x="752" y="631" as="sourcePoint" />
              <mxPoint x="790" y="624.25" as="targetPoint" />
            </mxGeometry>
          </mxCell>
        </object>
        <mxCell id="alQhddrq2ZLo0OdN9rPj-1" value="" style="orthogonalLoop=1;jettySize=auto;html=1;rounded=0;endArrow=none;endFill=0;dashed=1;dashPattern=1 1;strokeWidth=4;strokeColor=#82b366;fillColor=#d5e8d4;edgeStyle=orthogonalEdgeStyle;" parent="1" edge="1">
          <mxGeometry width="80" relative="1" as="geometry">
            <mxPoint x="359" y="9" as="sourcePoint" />
            <mxPoint x="359" y="923" as="targetPoint" />
          </mxGeometry>
        </mxCell>
        <mxCell id="alQhddrq2ZLo0OdN9rPj-2" value="" style="edgeStyle=orthogonalEdgeStyle;orthogonalLoop=1;jettySize=auto;html=1;rounded=0;endArrow=none;endFill=0;dashed=1;dashPattern=1 1;strokeWidth=4;strokeColor=#82b366;fillColor=#d5e8d4;noJump=1;" parent="1" edge="1">
          <mxGeometry width="80" relative="1" as="geometry">
            <mxPoint x="895" y="3" as="sourcePoint" />
            <mxPoint x="840" y="922" as="targetPoint" />
            <Array as="points">
              <mxPoint x="895" y="503" />
              <mxPoint x="863" y="503" />
              <mxPoint x="863" y="717" />
              <mxPoint x="840" y="717" />
            </Array>
          </mxGeometry>
        </mxCell>
        <mxCell id="alQhddrq2ZLo0OdN9rPj-5" value="&lt;font style=&quot;font-size: 20px;&quot; color=&quot;#97D077&quot;&gt;&lt;b&gt;&lt;font color=&quot;#60854C&quot;&gt;Instruction Fetch&lt;/font&gt;&lt;br&gt;&lt;/b&gt;&lt;/font&gt;" style="text;html=1;resizable=0;autosize=1;align=center;verticalAlign=middle;points=[];fillColor=none;strokeColor=none;rounded=0;" parent="1" vertex="1">
          <mxGeometry x="152" y="3" width="180" height="36" as="geometry" />
        </mxCell>
        <mxCell id="alQhddrq2ZLo0OdN9rPj-6" value="&lt;div&gt;&lt;font style=&quot;font-size: 20px;&quot; color=&quot;#97D077&quot;&gt;&lt;b&gt;&lt;font color=&quot;#60854C&quot;&gt;Instruction Decode / Register Read&lt;/font&gt;&lt;/b&gt;&lt;/font&gt;&lt;/div&gt;" style="text;html=1;resizable=0;autosize=1;align=center;verticalAlign=middle;points=[];fillColor=none;strokeColor=none;rounded=0;" parent="1" vertex="1">
          <mxGeometry x="455" y="3" width="350" height="36" as="geometry" />
        </mxCell>
        <mxCell id="alQhddrq2ZLo0OdN9rPj-7" value="&lt;div&gt;&lt;font style=&quot;font-size: 20px;&quot; color=&quot;#97D077&quot;&gt;&lt;b&gt;&lt;font color=&quot;#60854C&quot;&gt;Execute&lt;/font&gt;&lt;/b&gt;&lt;/font&gt;&lt;/div&gt;" style="text;html=1;resizable=0;autosize=1;align=center;verticalAlign=middle;points=[];fillColor=none;strokeColor=none;rounded=0;" parent="1" vertex="1">
          <mxGeometry x="970" y="3" width="95" height="36" as="geometry" />
        </mxCell>
        <mxCell id="alQhddrq2ZLo0OdN9rPj-8" value="&lt;div&gt;&lt;font style=&quot;font-size: 20px;&quot; color=&quot;#97D077&quot;&gt;&lt;b&gt;&lt;font color=&quot;#60854C&quot;&gt;Memory&lt;/font&gt;&lt;/b&gt;&lt;/font&gt;&lt;/div&gt;" style="text;html=1;resizable=0;autosize=1;align=center;verticalAlign=middle;points=[];fillColor=none;strokeColor=none;rounded=0;" parent="1" vertex="1">
          <mxGeometry x="1197" y="3" width="95" height="36" as="geometry" />
        </mxCell>
        <mxCell id="alQhddrq2ZLo0OdN9rPj-9" value="&lt;div&gt;&lt;font style=&quot;font-size: 20px;&quot; color=&quot;#97D077&quot;&gt;&lt;b&gt;&lt;font color=&quot;#60854C&quot;&gt;Writeback&lt;/font&gt;&lt;/b&gt;&lt;/font&gt;&lt;/div&gt;" style="text;html=1;resizable=0;autosize=1;align=center;verticalAlign=middle;points=[];fillColor=none;strokeColor=none;rounded=0;" parent="1" vertex="1">
          <mxGeometry x="1430" y="3" width="113" height="36" as="geometry" />
        </mxCell>
        <mxCell id="LNPOl51hBx1QrpeweeW8-16" value="" style="edgeStyle=elbowEdgeStyle;elbow=horizontal;endArrow=classic;html=1;rounded=0;entryDx=0;entryDy=0;entryPerimeter=0;strokeColor=#EA6B66;exitX=1;exitY=0.33;exitDx=0;exitDy=0;exitPerimeter=0;noJump=1;entryX=0;entryY=0.75;startArrow=none;startFill=0;endFill=1;" parent="1" source="_5b_4j9nvjmzGaxmlqEA-8" target="_5b_4j9nvjmzGaxmlqEA-84" edge="1">
          <mxGeometry width="50" height="50" relative="1" as="geometry">
            <mxPoint x="935" y="574.6" as="sourcePoint" />
            <mxPoint x="948" y="303.5" as="targetPoint" />
            <Array as="points">
              <mxPoint x="948" y="556" />
              <mxPoint x="952" y="383" />
            </Array>
          </mxGeometry>
        </mxCell>
        <object label="" stage="execute" variable="alu_result" id="_5b_4j9nvjmzGaxmlqEA-42">
          <mxCell style="edgeStyle=orthogonalEdgeStyle;elbow=horizontal;endArrow=classic;html=1;rounded=0;exitX=0.528;exitY=0.603;exitDx=0;exitDy=0;exitPerimeter=0;entryX=0;entryY=0.19202898550724637;entryDx=0;entryDy=3;entryPerimeter=0;jumpStyle=arc;" parent="1" source="_5b_4j9nvjmzGaxmlqEA-40" target="Km6qmCgPLQNsDk_GTwIv-4" edge="1">
            <mxGeometry width="50" height="50" relative="1" as="geometry">
              <mxPoint x="1025" y="700" as="sourcePoint" />
              <mxPoint x="1385.0384615384614" y="572.30772" as="targetPoint" />
              <Array as="points">
                <mxPoint x="1045" y="709" />
                <mxPoint x="1340" y="709" />
                <mxPoint x="1340" y="559" />
              </Array>
            </mxGeometry>
          </mxCell>
        </object>
        <mxCell id="alQhddrq2ZLo0OdN9rPj-4" value="" style="edgeStyle=orthogonalEdgeStyle;orthogonalLoop=1;jettySize=auto;html=1;rounded=0;endArrow=none;endFill=0;dashed=1;dashPattern=1 1;strokeWidth=4;strokeColor=#82b366;fillColor=#d5e8d4;" parent="1" edge="1">
          <mxGeometry width="80" relative="1" as="geometry">
            <mxPoint x="1366" y="2" as="sourcePoint" />
            <mxPoint x="1366" y="922" as="targetPoint" />
          </mxGeometry>
        </mxCell>
        <mxCell id="alQhddrq2ZLo0OdN9rPj-3" value="" style="edgeStyle=orthogonalEdgeStyle;orthogonalLoop=1;jettySize=auto;html=1;rounded=0;endArrow=none;endFill=0;dashed=1;dashPattern=1 1;strokeWidth=4;strokeColor=#82b366;fillColor=#d5e8d4;noJump=1;" parent="1" edge="1">
          <mxGeometry width="80" relative="1" as="geometry">
            <mxPoint x="1131" y="4" as="sourcePoint" />
            <mxPoint x="1099" y="921" as="targetPoint" />
            <Array as="points">
              <mxPoint x="1131" y="476" />
              <mxPoint x="1099" y="476" />
            </Array>
          </mxGeometry>
        </mxCell>
        <mxCell id="Xk8ovzeAVugm609xIboV-66" style="edgeStyle=orthogonalEdgeStyle;rounded=0;jumpStyle=arc;orthogonalLoop=1;jettySize=auto;html=1;exitX=1;exitY=0.5;exitDx=0;exitDy=0;entryX=0;entryY=0.8;entryDx=0;entryDy=0;fontSize=10;" parent="1" source="Xk8ovzeAVugm609xIboV-64" target="_5b_4j9nvjmzGaxmlqEA-50" edge="1">
          <mxGeometry relative="1" as="geometry" />
        </mxCell>
        <mxCell id="Xk8ovzeAVugm609xIboV-64" value="&lt;font style=&quot;font-size: 10px;&quot;&gt;4&lt;/font&gt;" style="text;strokeColor=none;align=center;fillColor=none;html=1;verticalAlign=middle;whiteSpace=wrap;rounded=0;fontSize=6;" parent="1" vertex="1">
          <mxGeometry x="254" y="293" width="21" height="17" as="geometry" />
        </mxCell>
        <mxCell id="F3FO0Mp9pGp9kQeEYRFP-1" value="" style="group" parent="1" vertex="1" connectable="0">
          <mxGeometry x="875" y="526" width="60" height="109" as="geometry" />
        </mxCell>
        <mxCell id="_5b_4j9nvjmzGaxmlqEA-8" value="&lt;div&gt;ALU&lt;/div&gt;" style="shape=stencil(rZThboMgFIWfhr8Nwlzsz8Wt70Ht7SRDMEDb7e0HXLqstrq1SozmnAsfVz2B8Nq1ogfCqBYdEP5KGBPqEO7BalEXlKI+oV5nKVwPjUfvKKwUWwVYcd6aDzjJnc8IqVuw0scqfyP0JcyJF68bo3WASKPdReVXPcCE1GEt/URY3v4rqxVD3YcdOvBgc9foErZ5GFwtBl6VA3QRx008XQJfxbEUvhjAy3s+C6+DM/aXeb03Ft6tOejdzXb2UikM00TPcVJjlLFB4jM1RBjfpDH9xr2IIb0qnMudOcJoQqbIZ4CSehTw9ABhgChnN/E8m/BzQNyDWF8yqvmI//2PRhk3labgj0TijzimpVd5Ti6escn4Bg==);whiteSpace=wrap;html=1;fontStyle=1;points=[[0,0.2,0,0,0],[0,0.8,0,0,0],[0.5,0.11,0,0,0],[0.5,0.89,0,0,0],[1,0.33,0,0,0],[1,0.5,0,0,0],[1,0.67,0,0,0]];" parent="F3FO0Mp9pGp9kQeEYRFP-1" vertex="1">
          <mxGeometry width="60" height="109" as="geometry" />
        </mxCell>
        <mxCell id="-Lmf1zb877u7wcXiO0Bk-25" value="&lt;div align=&quot;right&quot;&gt;Zero&lt;/div&gt;" style="text;html=1;strokeColor=none;fillColor=none;align=right;verticalAlign=middle;whiteSpace=wrap;rounded=0;fontSize=9;" parent="F3FO0Mp9pGp9kQeEYRFP-1" vertex="1">
          <mxGeometry x="15" y="22.708333333333332" width="40" height="27.25" as="geometry" />
        </mxCell>
        <mxCell id="eaMoe0dZ3GEupYeplDxx-1" value="" style="shape=xor;whiteSpace=wrap;html=1;" parent="1" vertex="1">
          <mxGeometry x="680" y="98" width="60" height="80" as="geometry" />
        </mxCell>
        <object label="" stage="instruction_decode" variable="lower_26_shifted_left_by_2" id="eaMoe0dZ3GEupYeplDxx-2">
          <mxCell style="edgeStyle=orthogonalEdgeStyle;rounded=0;orthogonalLoop=1;jettySize=auto;html=1;entryX=0.175;entryY=0.25;entryDx=0;entryDy=0;entryPerimeter=0;" parent="1" edge="1">
            <mxGeometry relative="1" as="geometry">
              <Array as="points">
                <mxPoint x="584" y="165" />
                <mxPoint x="584" y="118" />
              </Array>
              <mxPoint x="550" y="162" as="sourcePoint" />
              <mxPoint x="690.5" y="118" as="targetPoint" />
            </mxGeometry>
          </mxCell>
        </object>
        <object label="" stage="instruction_decode" variable="read_data_1" id="q4aLnZXwkiyl6f_3jFDg-5">
          <mxCell style="edgeStyle=orthogonalEdgeStyle;elbow=horizontal;endArrow=classic;html=1;rounded=0;exitX=1;exitY=0.25;exitDx=0;exitDy=0;exitPerimeter=0;entryDx=0;entryDy=0;jumpStyle=arc;endFill=1;entryX=0;entryY=0.2;entryPerimeter=0;" parent="1" source="-Lmf1zb877u7wcXiO0Bk-16" target="_5b_4j9nvjmzGaxmlqEA-8" edge="1">
            <mxGeometry width="50" height="50" relative="1" as="geometry">
              <mxPoint x="690" y="548" as="sourcePoint" />
              <mxPoint x="770" y="547" as="targetPoint" />
            </mxGeometry>
          </mxCell>
        </object>
        <mxCell id="Km6qmCgPLQNsDk_GTwIv-2" value="&lt;font style=&quot;font-size: 10px;&quot;&gt;Mux&lt;/font&gt;" style="shadow=0;dashed=0;align=center;html=1;strokeWidth=1;shape=mxgraph.electrical.abstract.mux2;whiteSpace=wrap;spacingBottom=12;" parent="1" vertex="1">
          <mxGeometry x="790" y="589" width="50" height="59" as="geometry" />
        </mxCell>
        <mxCell id="Km6qmCgPLQNsDk_GTwIv-3" value="Mux" style="shadow=0;dashed=0;align=center;html=1;strokeWidth=1;shape=mxgraph.electrical.abstract.mux2;whiteSpace=wrap;flipV=1;" parent="1" vertex="1">
          <mxGeometry x="1238" y="133" width="52" height="65" as="geometry" />
        </mxCell>
        <mxCell id="Km6qmCgPLQNsDk_GTwIv-4" value="Mux" style="shadow=0;dashed=0;align=center;html=1;strokeWidth=1;shape=mxgraph.electrical.abstract.mux2;whiteSpace=wrap;flipH=0;flipV=1;" parent="1" vertex="1">
          <mxGeometry x="1401" y="506" width="53" height="69" as="geometry" />
        </mxCell>
        <mxCell id="Km6qmCgPLQNsDk_GTwIv-5" value="&lt;font style=&quot;font-size: 9px;&quot;&gt;Mux&lt;/font&gt;" style="shadow=0;dashed=0;align=center;html=1;strokeWidth=1;shape=mxgraph.electrical.abstract.mux2;whiteSpace=wrap;verticalAlign=middle;spacingTop=0;spacingBottom=11;" parent="1" vertex="1">
          <mxGeometry x="457.5" y="583" width="42.5" height="59" as="geometry" />
        </mxCell>
        <mxCell id="NFu5_vnd6gg_ZSHdmE7s-1" value="" style="edgeStyle=elbowEdgeStyle;elbow=horizontal;endArrow=none;html=1;rounded=0;entryDx=0;entryDy=0;" parent="1" target="_5b_4j9nvjmzGaxmlqEA-36" edge="1">
          <mxGeometry width="50" height="50" relative="1" as="geometry">
            <mxPoint x="385" y="614" as="sourcePoint" />
            <mxPoint x="478" y="750" as="targetPoint" />
            <Array as="points" />
          </mxGeometry>
        </mxCell>
        <object label="" stage="instruction_decode" id="_5b_4j9nvjmzGaxmlqEA-36">
          <mxCell style="shape=waypoint;sketch=0;fillStyle=solid;size=6;pointerEvents=1;points=[];fillColor=none;resizable=0;rotatable=0;perimeter=centerPerimeter;snapToPoint=1;" parent="1" vertex="1">
            <mxGeometry x="365" y="598.5" width="40" height="40" as="geometry" />
          </mxCell>
        </object>
        <object label="" stage="instruction_decode" variable="lower_26" id="_5b_4j9nvjmzGaxmlqEA-126">
          <mxCell style="endArrow=classic;html=1;rounded=0;strokeColor=#000000;fillColor=#97D077;entryX=0;entryY=0.5;entryDx=0;entryDy=0;exitX=0.589;exitY=0.358;exitDx=0;exitDy=0;exitPerimeter=0;edgeStyle=orthogonalEdgeStyle;jumpStyle=arc;" parent="1" source="_5b_4j9nvjmzGaxmlqEA-123" target="_5b_4j9nvjmzGaxmlqEA-125" edge="1">
            <mxGeometry width="50" height="50" relative="1" as="geometry">
              <mxPoint x="425" y="230" as="sourcePoint" />
              <mxPoint x="475" y="180" as="targetPoint" />
              <Array as="points">
                <mxPoint x="365" y="165" />
              </Array>
            </mxGeometry>
          </mxCell>
        </object>
        <mxCell id="_5b_4j9nvjmzGaxmlqEA-135" value="Instruction [25-0]" style="edgeLabel;html=1;align=center;verticalAlign=middle;resizable=0;points=[];" parent="_5b_4j9nvjmzGaxmlqEA-126" vertex="1" connectable="0">
          <mxGeometry x="0.8042" relative="1" as="geometry">
            <mxPoint as="offset" />
          </mxGeometry>
        </mxCell>
        <object label="" stage="instruction_decode" variable="sign_extend" id="_5b_4j9nvjmzGaxmlqEA-9">
          <mxCell style="edgeStyle=elbowEdgeStyle;elbow=horizontal;endArrow=classic;html=1;rounded=0;exitDx=0;exitDy=0;entryX=0;entryY=0.5;entryDx=0;entryDy=0;startArrow=none;jumpStyle=arc;" parent="1" source="_5b_4j9nvjmzGaxmlqEA-17" target="_5b_4j9nvjmzGaxmlqEA-11" edge="1">
            <mxGeometry width="50" height="50" relative="1" as="geometry">
              <mxPoint x="705" y="750" as="sourcePoint" />
              <mxPoint x="735" y="460" as="targetPoint" />
              <Array as="points">
                <mxPoint x="721" y="608" />
                <mxPoint x="725" y="630" />
              </Array>
            </mxGeometry>
          </mxCell>
        </object>
        <object label="Variable Names" id="HUUn-JKePNu-6vGN2vdo-1">
          <mxCell parent="0" visible="0" />
        </object>
        <mxCell id="HUUn-JKePNu-6vGN2vdo-3" value="&lt;div align=&quot;left&quot;&gt;&lt;font style=&quot;font-size: 9px;&quot; data-font-src=&quot;https://fonts.googleapis.com/css?family=Fira+Code&quot; face=&quot;Lucida Console&quot; color=&quot;#0063C7&quot;&gt;register_write_data&lt;/font&gt;&lt;/div&gt;" style="text;strokeColor=none;align=left;fillColor=none;html=1;verticalAlign=middle;whiteSpace=wrap;rounded=0;" parent="HUUn-JKePNu-6vGN2vdo-1" vertex="1">
          <mxGeometry x="637" y="897" width="109" height="14" as="geometry" />
        </mxCell>
        <mxCell id="2doSf7JI5h9BD3QKtnu3-3" value="&lt;div align=&quot;left&quot;&gt;&lt;font style=&quot;font-size: 9px;&quot; data-font-src=&quot;https://fonts.googleapis.com/css?family=Fira+Code&quot; face=&quot;Lucida Console&quot; color=&quot;#0063C7&quot;&gt;coprocessor.fs&lt;/font&gt;&lt;/div&gt;" style="text;strokeColor=none;align=left;fillColor=none;html=1;verticalAlign=middle;whiteSpace=wrap;rounded=0;" parent="HUUn-JKePNu-6vGN2vdo-1" vertex="1">
          <mxGeometry x="500" y="1423" width="109" height="14" as="geometry" />
        </mxCell>
        <mxCell id="2doSf7JI5h9BD3QKtnu3-4" value="&lt;div align=&quot;center&quot;&gt;&lt;font style=&quot;font-size: 9px;&quot; data-font-src=&quot;https://fonts.googleapis.com/css?family=Fira+Code&quot; face=&quot;Lucida Console&quot; color=&quot;#0063C7&quot;&gt;pc&lt;/font&gt;&lt;/div&gt;" style="text;strokeColor=none;align=center;fillColor=none;html=1;verticalAlign=middle;whiteSpace=wrap;rounded=0;" parent="HUUn-JKePNu-6vGN2vdo-1" vertex="1">
          <mxGeometry x="340" y="580" width="22" height="14" as="geometry" />
        </mxCell>
        <mxCell id="2doSf7JI5h9BD3QKtnu3-5" value="&lt;div align=&quot;center&quot;&gt;&lt;font style=&quot;font-size: 9px;&quot; data-font-src=&quot;https://fonts.googleapis.com/css?family=Fira+Code&quot; face=&quot;Lucida Console&quot; color=&quot;#0063C7&quot;&gt;rt&lt;/font&gt;&lt;/div&gt;" style="text;strokeColor=none;align=center;fillColor=none;html=1;verticalAlign=middle;whiteSpace=wrap;rounded=0;" parent="HUUn-JKePNu-6vGN2vdo-1" vertex="1">
          <mxGeometry x="522" y="576" width="22" height="14" as="geometry" />
        </mxCell>
        <mxCell id="M0l--jZs8mVLbmA-KPP_-1" value="&lt;div align=&quot;center&quot;&gt;&lt;font size=&quot;1&quot; face=&quot;Lucida Console&quot; color=&quot;#0063c7&quot;&gt;new_pc&lt;/font&gt;&lt;/div&gt;" style="text;strokeColor=none;align=center;fillColor=none;html=1;verticalAlign=middle;whiteSpace=wrap;rounded=0;" parent="HUUn-JKePNu-6vGN2vdo-1" vertex="1">
          <mxGeometry x="725" y="72" width="110" height="14" as="geometry" />
        </mxCell>
        <mxCell id="jKfy6yM8UuyQPl7dORR3-1" value="&lt;div align=&quot;center&quot;&gt;&lt;font size=&quot;1&quot; face=&quot;Lucida Console&quot; color=&quot;#0063c7&quot;&gt;read_data_1&lt;/font&gt;&lt;/div&gt;" style="text;strokeColor=none;align=center;fillColor=none;html=1;verticalAlign=middle;whiteSpace=wrap;rounded=0;" parent="HUUn-JKePNu-6vGN2vdo-1" vertex="1">
          <mxGeometry x="861" y="533" width="70" height="14" as="geometry" />
        </mxCell>
        <mxCell id="jKfy6yM8UuyQPl7dORR3-2" value="&lt;div align=&quot;center&quot;&gt;&lt;font size=&quot;1&quot; face=&quot;Lucida Console&quot; color=&quot;#0063c7&quot;&gt;read_data_2&lt;/font&gt;&lt;/div&gt;" style="text;strokeColor=none;align=center;fillColor=none;html=1;verticalAlign=middle;whiteSpace=wrap;rounded=0;" parent="HUUn-JKePNu-6vGN2vdo-1" vertex="1">
          <mxGeometry x="861" y="586" width="70" height="14" as="geometry" />
        </mxCell>
      </root>
    </mxGraphModel>
  </diagram>
</mxfile>
